<svg width="501" height="509" viewBox="0 0 501 509" fill="none" xmlns="http://www.w3.org/2000/svg">
<g clip-path="url(#clip0)">
<path d="M500.76 0H0.76001V508.55H500.76V0Z" fill="#007DB9"/>
<path d="M273.29 77.34H278.29C284.384 77.34 290.419 78.5405 296.049 80.8729C301.679 83.2054 306.795 86.6241 311.103 90.9338C315.412 95.2435 318.83 100.36 321.161 105.99C323.492 111.621 324.691 117.656 324.69 123.75V340.56C324.69 340.56 204.86 341.96 184.62 340.56C164.38 339.16 158.18 325.86 155.36 304.62C152.54 283.38 235.63 111 235.63 111C235.63 111 256.76 77.34 273.29 77.34Z" fill="#00BCF1" stroke="#00BCF1" stroke-width="1.93" stroke-miterlimit="10"/>
<path d="M269.46 435.48C269.46 429.74 275.06 429.74 275.06 424C275.06 418.26 269.46 418.26 269.46 412.52C269.46 406.78 275.06 406.78 275.06 401.04C275.06 395.3 269.46 395.3 269.46 389.55C269.46 383.8 275.06 383.81 275.06 378.07" stroke="#00BCF1" stroke-width="4.37" stroke-miterlimit="10" stroke-linecap="round"/>
<path d="M240.07 435.48C240.07 429.74 245.68 429.74 245.68 424C245.68 418.26 240.07 418.26 240.07 412.52C240.07 406.78 245.68 406.78 245.68 401.04C245.68 395.3 240.07 395.3 240.07 389.55C240.07 383.8 245.68 383.81 245.68 378.07" stroke="#00BCF1" stroke-width="4.37" stroke-miterlimit="10" stroke-linecap="round"/>
<path d="M208.76 435.48C208.76 429.74 214.37 429.74 214.37 424C214.37 418.26 208.76 418.26 208.76 412.52C208.76 406.78 214.37 406.78 214.37 401.04C214.37 395.3 208.76 395.3 208.76 389.55C208.76 383.8 214.37 383.81 214.37 378.07" stroke="#00BCF1" stroke-width="4.37" stroke-miterlimit="10" stroke-linecap="round"/>
<path d="M182.04 435.48C182.04 429.74 187.64 429.74 187.64 424C187.64 418.26 182.04 418.26 182.04 412.52C182.04 406.78 187.64 406.78 187.64 401.04C187.64 395.3 182.04 395.3 182.04 389.55C182.04 383.8 187.64 383.81 187.64 378.07" stroke="#00BCF1" stroke-width="4.37" stroke-miterlimit="10" stroke-linecap="round"/>
<path d="M269.59 70.83C269.59 70.83 241.91 86.06 228.21 117.19C214.51 148.32 155.37 281.49 155.37 281.49C155.37 281.49 142.91 313.94 160.97 330.13C179.03 346.32 202.69 346.94 228.21 335.13L237.11 330.99C259.11 320.82 286.74 308.67 286.74 330.15V338.25H223.48" stroke="#007DB9" stroke-width="9.66" stroke-miterlimit="10"/>
<path d="M273.29 257C288.7 241.59 322.29 248.61 322.29 281.52V340.59" stroke="#007DB9" stroke-width="9.66" stroke-linecap="round" stroke-linejoin="round"/>
<path d="M210.98 345.21C210.98 345.21 265.1 314.28 279.11 321.53C293.12 328.78 282.01 364.53 282.01 364.53L210.98 345.21Z" fill="#007DB9"/>
<path d="M285.95 334.35C285.95 334.35 317.38 348.59 322.33 313.8L346.93 329.91L344.99 366.31L307.62 370.5L285.95 334.35Z" fill="#007DB9"/>
</g>
<defs>
<clipPath id="clip0">
<rect width="500" height="508.55" fill="white" transform="translate(0.76001)"/>
</clipPath>
</defs>
</svg>
